<mxfile host="app.diagrams.net" modified="2022-09-30T08:17:11.563Z" agent="5.0 (Windows NT 10.0; Win64; x64) AppleWebKit/537.36 (KHTML, like Gecko) Chrome/105.0.0.0 Safari/537.36" etag="D8BUIvhoylNILIAUs3Zw" version="20.3.7" type="github">
  <diagram id="YtTjGYOVgsuA8i7x_-HD" name="第 1 页">
    <mxGraphModel dx="2062" dy="1154" grid="1" gridSize="10" guides="1" tooltips="1" connect="1" arrows="1" fold="1" page="1" pageScale="1" pageWidth="827" pageHeight="1169" math="0" shadow="0">
      <root>
        <mxCell id="0" />
        <mxCell id="1" parent="0" />
        <mxCell id="5za4MrNCNBxiH1SjWDzN-1" value="List" style="swimlane;fontStyle=0;childLayout=stackLayout;horizontal=1;startSize=26;horizontalStack=0;resizeParent=1;resizeParentMax=0;resizeLast=0;collapsible=1;marginBottom=0;align=center;fontSize=14;" vertex="1" parent="1">
          <mxGeometry x="200" y="330" width="470" height="296" as="geometry" />
        </mxCell>
        <mxCell id="5za4MrNCNBxiH1SjWDzN-2" value="Item 1" style="text;strokeColor=none;fillColor=none;spacingLeft=4;spacingRight=4;overflow=hidden;rotatable=0;points=[[0,0.5],[1,0.5]];portConstraint=eastwest;fontSize=12;" vertex="1" parent="5za4MrNCNBxiH1SjWDzN-1">
          <mxGeometry y="26" width="470" height="30" as="geometry" />
        </mxCell>
        <mxCell id="5za4MrNCNBxiH1SjWDzN-6" value="&lt;br style=&quot;color: rgb(0, 0, 0); font-family: Helvetica; font-size: 12px; font-style: normal; font-variant-ligatures: normal; font-variant-caps: normal; font-weight: 400; letter-spacing: normal; orphans: 2; text-align: left; text-indent: 0px; text-transform: none; widows: 2; word-spacing: 0px; -webkit-text-stroke-width: 0px; text-decoration-thickness: initial; text-decoration-style: initial; text-decoration-color: initial; box-sizing: content-box; margin: 0px; padding: 0px; -webkit-font-smoothing: antialiased; background-color: rgb(248, 249, 250);&quot;&gt;&lt;br style=&quot;color: rgb(0, 0, 0); font-family: Helvetica; font-size: 12px; font-style: normal; font-variant-ligatures: normal; font-variant-caps: normal; font-weight: 400; letter-spacing: normal; orphans: 2; text-align: left; text-indent: 0px; text-transform: none; widows: 2; word-spacing: 0px; -webkit-text-stroke-width: 0px; text-decoration-thickness: initial; text-decoration-style: initial; text-decoration-color: initial; box-sizing: content-box; margin: 0px; padding: 0px; -webkit-font-smoothing: antialiased; background-color: rgb(248, 249, 250);&quot;&gt;&lt;pre style=&quot;color: rgb(0, 0, 0); font-size: 12px; font-style: normal; font-variant-ligatures: normal; font-variant-caps: normal; font-weight: 400; letter-spacing: normal; orphans: 2; text-indent: 0px; text-transform: none; widows: 2; word-spacing: 0px; -webkit-text-stroke-width: 0px; text-decoration-thickness: initial; text-decoration-style: initial; text-decoration-color: initial; box-sizing: content-box; margin: 0px; padding: 0px; -webkit-font-smoothing: antialiased; font-family: monospace; overflow: visible; display: block; border: 0px; text-align: start; background-color: rgb(255, 255, 255);&quot;&gt;&lt;pre style=&quot;box-sizing: content-box; margin: 0px; padding: 0px; -webkit-font-smoothing: antialiased; font-size: 1em; font-family: monospace; overflow: visible; display: block; border: 0px;&quot;&gt;   &lt;span style=&quot;box-sizing: content-box; margin: 0px; padding: 0px; -webkit-font-smoothing: antialiased; color: rgb(32, 48, 162);&quot;&gt;UINT32&lt;/span&gt;                              &lt;span style=&quot;box-sizing: content-box; margin: 0px; padding: 0px; -webkit-font-smoothing: antialiased; color: rgb(0, 153, 0); font-weight: bold;&quot;&gt;&lt;/span&gt;&lt;span style=&quot;box-sizing: content-box; margin: 0px; padding: 0px; -webkit-font-smoothing: antialiased; color: rgb(0, 153, 0); font-weight: bold;&quot;&gt;featureId&lt;/span&gt;;          &lt;span style=&quot;box-sizing: content-box; margin: 0px; padding: 0px; -webkit-font-smoothing: antialiased; color: rgb(102, 102, 102);&quot;&gt;///&amp;lt; Feature unique ID.&lt;/span&gt;&lt;br style=&quot;box-sizing: content-box; margin: 0px; padding: 0px; -webkit-font-smoothing: antialiased;&quot;&gt;   &lt;b style=&quot;box-sizing: content-box; margin: 0px; padding: 0px; -webkit-font-smoothing: antialiased; font-weight: bolder;&quot;&gt;const&lt;/b&gt; &lt;span style=&quot;box-sizing: content-box; margin: 0px; padding: 0px; -webkit-font-smoothing: antialiased; color: rgb(32, 48, 162);&quot;&gt;CHAR&lt;/span&gt;*                         &lt;span style=&quot;box-sizing: content-box; margin: 0px; padding: 0px; -webkit-font-smoothing: antialiased; color: rgb(0, 153, 0); font-weight: bold;&quot;&gt;&lt;/span&gt;&lt;span style=&quot;box-sizing: content-box; margin: 0px; padding: 0px; -webkit-font-smoothing: antialiased; color: rgb(0, 153, 0); font-weight: bold;&quot;&gt;pFeatureName&lt;/span&gt;;       &lt;span style=&quot;box-sizing: content-box; margin: 0px; padding: 0px; -webkit-font-smoothing: antialiased; color: rgb(102, 102, 102);&quot;&gt;///&amp;lt; Feature name.&lt;/span&gt;&lt;/pre&gt;&lt;/pre&gt;" style="text;whiteSpace=wrap;html=1;" vertex="1" parent="5za4MrNCNBxiH1SjWDzN-1">
          <mxGeometry y="56" width="470" height="80" as="geometry" />
        </mxCell>
        <mxCell id="5za4MrNCNBxiH1SjWDzN-7" value="&lt;pre style=&quot;color: rgb(0, 0, 0); font-size: 1em; font-style: normal; font-variant-ligatures: normal; font-variant-caps: normal; font-weight: 400; letter-spacing: normal; orphans: 2; text-align: start; text-indent: 0px; text-transform: none; widows: 2; word-spacing: 0px; -webkit-text-stroke-width: 0px; text-decoration-thickness: initial; text-decoration-style: initial; text-decoration-color: initial; box-sizing: content-box; margin: 0px; padding: 0px; -webkit-font-smoothing: antialiased; font-family: monospace; overflow: visible; display: block; border: 0px;&quot;&gt;   &lt;span style=&quot;box-sizing: content-box; margin: 0px; padding: 0px; -webkit-font-smoothing: antialiased; color: rgb(32, 48, 162);&quot;&gt;UINT8&lt;/span&gt;                               &lt;span style=&quot;box-sizing: content-box; margin: 0px; padding: 0px; -webkit-font-smoothing: antialiased; color: rgb(0, 153, 0); font-weight: bold;&quot;&gt;&lt;/span&gt;&lt;span style=&quot;box-sizing: content-box; margin: 0px; padding: 0px; -webkit-font-smoothing: antialiased; color: rgb(0, 153, 0); font-weight: bold;&quot;&gt;numStages&lt;/span&gt;;          &lt;span style=&quot;box-sizing: content-box; margin: 0px; padding: 0px; -webkit-font-smoothing: antialiased; color: rgb(102, 102, 102);&quot;&gt;///&amp;lt; Number of stages described for the feature.&lt;/span&gt;&lt;br style=&quot;box-sizing: content-box; margin: 0px; padding: 0px; -webkit-font-smoothing: antialiased;&quot;&gt;   &lt;b style=&quot;box-sizing: content-box; margin: 0px; padding: 0px; -webkit-font-smoothing: antialiased; font-weight: bolder;&quot;&gt;const&lt;/b&gt; &lt;span style=&quot;box-sizing: content-box; margin: 0px; padding: 0px; -webkit-font-smoothing: antialiased; color: rgb(32, 48, 162);&quot;&gt;ChiFeature2StageDescriptor&lt;/span&gt;*   &lt;span style=&quot;box-sizing: content-box; margin: 0px; padding: 0px; -webkit-font-smoothing: antialiased; color: rgb(0, 153, 0); font-weight: bold;&quot;&gt;&lt;/span&gt;&lt;span style=&quot;box-sizing: content-box; margin: 0px; padding: 0px; -webkit-font-smoothing: antialiased; color: rgb(0, 153, 0); font-weight: bold;&quot;&gt;pStages&lt;/span&gt;;            &lt;span style=&quot;box-sizing: content-box; margin: 0px; padding: 0px; -webkit-font-smoothing: antialiased; color: rgb(102, 102, 102);&quot;&gt;///&amp;lt; Pointer to table to stages.&lt;/span&gt;&lt;/pre&gt;" style="text;whiteSpace=wrap;html=1;" vertex="1" parent="5za4MrNCNBxiH1SjWDzN-1">
          <mxGeometry y="136" width="470" height="50" as="geometry" />
        </mxCell>
        <mxCell id="5za4MrNCNBxiH1SjWDzN-8" value="&lt;pre style=&quot;color: rgb(0, 0, 0); font-size: 1em; font-style: normal; font-variant-ligatures: normal; font-variant-caps: normal; font-weight: 400; letter-spacing: normal; orphans: 2; text-align: start; text-indent: 0px; text-transform: none; widows: 2; word-spacing: 0px; -webkit-text-stroke-width: 0px; text-decoration-thickness: initial; text-decoration-style: initial; text-decoration-color: initial; box-sizing: content-box; margin: 0px; padding: 0px; -webkit-font-smoothing: antialiased; font-family: monospace; overflow: visible; display: block; border: 0px;&quot;&gt;   &lt;span style=&quot;box-sizing: content-box; margin: 0px; padding: 0px; -webkit-font-smoothing: antialiased; color: rgb(32, 48, 162);&quot;&gt;UINT8&lt;/span&gt;                               &lt;span style=&quot;box-sizing: content-box; margin: 0px; padding: 0px; -webkit-font-smoothing: antialiased; color: rgb(0, 153, 0); font-weight: bold;&quot;&gt;&lt;/span&gt;&lt;span style=&quot;box-sizing: content-box; margin: 0px; padding: 0px; -webkit-font-smoothing: antialiased; color: rgb(0, 153, 0); font-weight: bold;&quot;&gt;numInternalLinks&lt;/span&gt;;   &lt;span style=&quot;box-sizing: content-box; margin: 0px; padding: 0px; -webkit-font-smoothing: antialiased; color: rgb(102, 102, 102);&quot;&gt;///&amp;lt; Number of internal links.&lt;/span&gt;&lt;br style=&quot;box-sizing: content-box; margin: 0px; padding: 0px; -webkit-font-smoothing: antialiased;&quot;&gt;   &lt;b style=&quot;box-sizing: content-box; margin: 0px; padding: 0px; -webkit-font-smoothing: antialiased; font-weight: bolder;&quot;&gt;const&lt;/b&gt; &lt;span style=&quot;box-sizing: content-box; margin: 0px; padding: 0px; -webkit-font-smoothing: antialiased; color: rgb(102, 0, 204); font-weight: bold;&quot;&gt;&lt;/span&gt;&lt;span style=&quot;box-sizing: content-box; margin: 0px; padding: 0px; -webkit-font-smoothing: antialiased; color: rgb(102, 0, 204); font-weight: bold;&quot;&gt;ChiFeature2InternalLinkDesc&lt;/span&gt;*  &lt;span style=&quot;box-sizing: content-box; margin: 0px; padding: 0px; -webkit-font-smoothing: antialiased; color: rgb(0, 153, 0); font-weight: bold;&quot;&gt;&lt;/span&gt;&lt;span style=&quot;box-sizing: content-box; margin: 0px; padding: 0px; -webkit-font-smoothing: antialiased; color: rgb(0, 153, 0); font-weight: bold;&quot;&gt;pInternalLinkDesc&lt;/span&gt;;  &lt;span style=&quot;box-sizing: content-box; margin: 0px; padding: 0px; -webkit-font-smoothing: antialiased; color: rgb(102, 102, 102);&quot;&gt;///&amp;lt; Pointer to internal link desc.&lt;/span&gt;&lt;/pre&gt;" style="text;whiteSpace=wrap;html=1;" vertex="1" parent="5za4MrNCNBxiH1SjWDzN-1">
          <mxGeometry y="186" width="470" height="50" as="geometry" />
        </mxCell>
        <mxCell id="5za4MrNCNBxiH1SjWDzN-3" value="Item 2" style="text;strokeColor=none;fillColor=none;spacingLeft=4;spacingRight=4;overflow=hidden;rotatable=0;points=[[0,0.5],[1,0.5]];portConstraint=eastwest;fontSize=12;" vertex="1" parent="5za4MrNCNBxiH1SjWDzN-1">
          <mxGeometry y="236" width="470" height="30" as="geometry" />
        </mxCell>
        <mxCell id="5za4MrNCNBxiH1SjWDzN-4" value="Item 3" style="text;strokeColor=none;fillColor=none;spacingLeft=4;spacingRight=4;overflow=hidden;rotatable=0;points=[[0,0.5],[1,0.5]];portConstraint=eastwest;fontSize=12;" vertex="1" parent="5za4MrNCNBxiH1SjWDzN-1">
          <mxGeometry y="266" width="470" height="30" as="geometry" />
        </mxCell>
        <mxCell id="5za4MrNCNBxiH1SjWDzN-5" value="&lt;br style=&quot;box-sizing: content-box; margin: 0px; padding: 0px; -webkit-font-smoothing: antialiased; color: rgb(0, 0, 0); font-family: Helvetica; font-size: 12px; font-style: normal; font-variant-ligatures: normal; font-variant-caps: normal; font-weight: 400; letter-spacing: normal; orphans: 2; text-align: left; text-indent: 0px; text-transform: none; widows: 2; word-spacing: 0px; -webkit-text-stroke-width: 0px; background-color: rgb(248, 249, 250); text-decoration-thickness: initial; text-decoration-style: initial; text-decoration-color: initial;&quot;&gt;&lt;br style=&quot;box-sizing: content-box; margin: 0px; padding: 0px; -webkit-font-smoothing: antialiased; color: rgb(0, 0, 0); font-family: Helvetica; font-size: 12px; font-style: normal; font-variant-ligatures: normal; font-variant-caps: normal; font-weight: 400; letter-spacing: normal; orphans: 2; text-align: left; text-indent: 0px; text-transform: none; widows: 2; word-spacing: 0px; -webkit-text-stroke-width: 0px; background-color: rgb(248, 249, 250); text-decoration-thickness: initial; text-decoration-style: initial; text-decoration-color: initial;&quot;&gt;&lt;pre style=&quot;box-sizing: content-box; margin: 0px; padding: 0px; -webkit-font-smoothing: antialiased; font-size: 12px; font-family: monospace; overflow: visible; display: block; color: rgb(0, 0, 0); font-style: normal; font-variant-ligatures: normal; font-variant-caps: normal; font-weight: 400; letter-spacing: normal; orphans: 2; text-indent: 0px; text-transform: none; widows: 2; word-spacing: 0px; -webkit-text-stroke-width: 0px; text-decoration-thickness: initial; text-decoration-style: initial; text-decoration-color: initial; border: 0px; text-align: start; background-color: rgb(255, 255, 255);&quot;&gt;&lt;pre style=&quot;box-sizing: content-box; margin: 0px; padding: 0px; -webkit-font-smoothing: antialiased; font-size: 1em; font-family: monospace; overflow: visible; display: block; border: 0px;&quot;&gt;   &lt;span style=&quot;box-sizing: content-box; margin: 0px; padding: 0px; -webkit-font-smoothing: antialiased; color: rgb(32, 48, 162);&quot;&gt;UINT32&lt;/span&gt;                              &lt;span style=&quot;box-sizing: content-box; margin: 0px; padding: 0px; -webkit-font-smoothing: antialiased; color: rgb(0, 153, 0); font-weight: bold;&quot;&gt;&lt;/span&gt;&lt;span style=&quot;box-sizing: content-box; margin: 0px; padding: 0px; -webkit-font-smoothing: antialiased; color: rgb(0, 153, 0); font-weight: bold;&quot;&gt;featureId&lt;/span&gt;;          &lt;span style=&quot;box-sizing: content-box; margin: 0px; padding: 0px; -webkit-font-smoothing: antialiased; color: rgb(102, 102, 102);&quot;&gt;///&amp;lt; Feature unique ID.&lt;/span&gt;&lt;br style=&quot;box-sizing: content-box; margin: 0px; padding: 0px; -webkit-font-smoothing: antialiased;&quot;&gt;   &lt;b style=&quot;box-sizing: content-box; margin: 0px; padding: 0px; -webkit-font-smoothing: antialiased; font-weight: bolder;&quot;&gt;const&lt;/b&gt; &lt;span style=&quot;box-sizing: content-box; margin: 0px; padding: 0px; -webkit-font-smoothing: antialiased; color: rgb(32, 48, 162);&quot;&gt;CHAR&lt;/span&gt;*                         &lt;span style=&quot;box-sizing: content-box; margin: 0px; padding: 0px; -webkit-font-smoothing: antialiased; color: rgb(0, 153, 0); font-weight: bold;&quot;&gt;&lt;/span&gt;&lt;span style=&quot;box-sizing: content-box; margin: 0px; padding: 0px; -webkit-font-smoothing: antialiased; color: rgb(0, 153, 0); font-weight: bold;&quot;&gt;pFeatureName&lt;/span&gt;;       &lt;span style=&quot;box-sizing: content-box; margin: 0px; padding: 0px; -webkit-font-smoothing: antialiased; color: rgb(102, 102, 102);&quot;&gt;///&amp;lt; Feature name.&lt;/span&gt;&lt;br style=&quot;box-sizing: content-box; margin: 0px; padding: 0px; -webkit-font-smoothing: antialiased;&quot;&gt;   &lt;span style=&quot;box-sizing: content-box; margin: 0px; padding: 0px; -webkit-font-smoothing: antialiased; color: rgb(32, 48, 162);&quot;&gt;UINT8&lt;/span&gt;                               &lt;span style=&quot;box-sizing: content-box; margin: 0px; padding: 0px; -webkit-font-smoothing: antialiased; color: rgb(0, 153, 0); font-weight: bold;&quot;&gt;&lt;/span&gt;&lt;span style=&quot;box-sizing: content-box; margin: 0px; padding: 0px; -webkit-font-smoothing: antialiased; color: rgb(0, 153, 0); font-weight: bold;&quot;&gt;numStages&lt;/span&gt;;          &lt;span style=&quot;box-sizing: content-box; margin: 0px; padding: 0px; -webkit-font-smoothing: antialiased; color: rgb(102, 102, 102);&quot;&gt;///&amp;lt; Number of stages described for the feature.&lt;/span&gt;&lt;br style=&quot;box-sizing: content-box; margin: 0px; padding: 0px; -webkit-font-smoothing: antialiased;&quot;&gt;   &lt;b style=&quot;box-sizing: content-box; margin: 0px; padding: 0px; -webkit-font-smoothing: antialiased; font-weight: bolder;&quot;&gt;const&lt;/b&gt; &lt;span style=&quot;box-sizing: content-box; margin: 0px; padding: 0px; -webkit-font-smoothing: antialiased; color: rgb(32, 48, 162);&quot;&gt;ChiFeature2StageDescriptor&lt;/span&gt;*   &lt;span style=&quot;box-sizing: content-box; margin: 0px; padding: 0px; -webkit-font-smoothing: antialiased; color: rgb(0, 153, 0); font-weight: bold;&quot;&gt;&lt;/span&gt;&lt;span style=&quot;box-sizing: content-box; margin: 0px; padding: 0px; -webkit-font-smoothing: antialiased; color: rgb(0, 153, 0); font-weight: bold;&quot;&gt;pStages&lt;/span&gt;;            &lt;span style=&quot;box-sizing: content-box; margin: 0px; padding: 0px; -webkit-font-smoothing: antialiased; color: rgb(102, 102, 102);&quot;&gt;///&amp;lt; Pointer to table to stages.&lt;/span&gt;&lt;br style=&quot;box-sizing: content-box; margin: 0px; padding: 0px; -webkit-font-smoothing: antialiased;&quot;&gt;   &lt;span style=&quot;box-sizing: content-box; margin: 0px; padding: 0px; -webkit-font-smoothing: antialiased; color: rgb(32, 48, 162);&quot;&gt;UINT8&lt;/span&gt;                               &lt;span style=&quot;box-sizing: content-box; margin: 0px; padding: 0px; -webkit-font-smoothing: antialiased; color: rgb(0, 153, 0); font-weight: bold;&quot;&gt;&lt;/span&gt;&lt;span style=&quot;box-sizing: content-box; margin: 0px; padding: 0px; -webkit-font-smoothing: antialiased; color: rgb(0, 153, 0); font-weight: bold;&quot;&gt;numSessions&lt;/span&gt;;        &lt;span style=&quot;box-sizing: content-box; margin: 0px; padding: 0px; -webkit-font-smoothing: antialiased; color: rgb(102, 102, 102);&quot;&gt;///&amp;lt; Number of sessions in this feature.&lt;/span&gt;&lt;br style=&quot;box-sizing: content-box; margin: 0px; padding: 0px; -webkit-font-smoothing: antialiased;&quot;&gt;   &lt;b style=&quot;box-sizing: content-box; margin: 0px; padding: 0px; -webkit-font-smoothing: antialiased; font-weight: bolder;&quot;&gt;const&lt;/b&gt; &lt;span style=&quot;box-sizing: content-box; margin: 0px; padding: 0px; -webkit-font-smoothing: antialiased; color: rgb(32, 48, 162);&quot;&gt;ChiFeature2SessionDescriptor&lt;/span&gt;* &lt;span style=&quot;box-sizing: content-box; margin: 0px; padding: 0px; -webkit-font-smoothing: antialiased; color: rgb(0, 153, 0); font-weight: bold;&quot;&gt;&lt;/span&gt;&lt;span style=&quot;box-sizing: content-box; margin: 0px; padding: 0px; -webkit-font-smoothing: antialiased; color: rgb(0, 153, 0); font-weight: bold;&quot;&gt;pSession&lt;/span&gt;;           &lt;span style=&quot;box-sizing: content-box; margin: 0px; padding: 0px; -webkit-font-smoothing: antialiased; color: rgb(102, 102, 102);&quot;&gt;///&amp;lt; Pointer to session descriptor table.&lt;/span&gt;&lt;br style=&quot;box-sizing: content-box; margin: 0px; padding: 0px; -webkit-font-smoothing: antialiased;&quot;&gt;   &lt;span style=&quot;box-sizing: content-box; margin: 0px; padding: 0px; -webkit-font-smoothing: antialiased; color: rgb(32, 48, 162);&quot;&gt;UINT8&lt;/span&gt;                               &lt;span style=&quot;box-sizing: content-box; margin: 0px; padding: 0px; -webkit-font-smoothing: antialiased; color: rgb(0, 153, 0); font-weight: bold;&quot;&gt;&lt;/span&gt;&lt;span style=&quot;box-sizing: content-box; margin: 0px; padding: 0px; -webkit-font-smoothing: antialiased; color: rgb(0, 153, 0); font-weight: bold;&quot;&gt;numInternalLinks&lt;/span&gt;;   &lt;span style=&quot;box-sizing: content-box; margin: 0px; padding: 0px; -webkit-font-smoothing: antialiased; color: rgb(102, 102, 102);&quot;&gt;///&amp;lt; Number of internal links.&lt;/span&gt;&lt;br style=&quot;box-sizing: content-box; margin: 0px; padding: 0px; -webkit-font-smoothing: antialiased;&quot;&gt;   &lt;b style=&quot;box-sizing: content-box; margin: 0px; padding: 0px; -webkit-font-smoothing: antialiased; font-weight: bolder;&quot;&gt;const&lt;/b&gt; &lt;span style=&quot;box-sizing: content-box; margin: 0px; padding: 0px; -webkit-font-smoothing: antialiased; color: rgb(102, 0, 204); font-weight: bold;&quot;&gt;&lt;/span&gt;&lt;span style=&quot;box-sizing: content-box; margin: 0px; padding: 0px; -webkit-font-smoothing: antialiased; color: rgb(102, 0, 204); font-weight: bold;&quot;&gt;ChiFeature2InternalLinkDesc&lt;/span&gt;*  &lt;span style=&quot;box-sizing: content-box; margin: 0px; padding: 0px; -webkit-font-smoothing: antialiased; color: rgb(0, 153, 0); font-weight: bold;&quot;&gt;&lt;/span&gt;&lt;span style=&quot;box-sizing: content-box; margin: 0px; padding: 0px; -webkit-font-smoothing: antialiased; color: rgb(0, 153, 0); font-weight: bold;&quot;&gt;pInternalLinkDesc&lt;/span&gt;;  &lt;span style=&quot;box-sizing: content-box; margin: 0px; padding: 0px; -webkit-font-smoothing: antialiased; color: rgb(102, 102, 102);&quot;&gt;///&amp;lt; Pointer to internal link desc.&lt;/span&gt;&lt;br style=&quot;box-sizing: content-box; margin: 0px; padding: 0px; -webkit-font-smoothing: antialiased;&quot;&gt;   &lt;span style=&quot;box-sizing: content-box; margin: 0px; padding: 0px; -webkit-font-smoothing: antialiased; color: rgb(32, 48, 162);&quot;&gt;UINT8&lt;/span&gt;                               &lt;span style=&quot;box-sizing: content-box; margin: 0px; padding: 0px; -webkit-font-smoothing: antialiased; color: rgb(0, 153, 0); font-weight: bold;&quot;&gt;&lt;/span&gt;&lt;span style=&quot;box-sizing: content-box; margin: 0px; padding: 0px; -webkit-font-smoothing: antialiased; color: rgb(0, 153, 0); font-weight: bold;&quot;&gt;numFlowDescriptors&lt;/span&gt;; &lt;span style=&quot;box-sizing: content-box; margin: 0px; padding: 0px; -webkit-font-smoothing: antialiased; color: rgb(102, 102, 102);&quot;&gt;///&amp;lt; Number of flow descriptors.&lt;/span&gt;&lt;br style=&quot;box-sizing: content-box; margin: 0px; padding: 0px; -webkit-font-smoothing: antialiased;&quot;&gt;   &lt;b style=&quot;box-sizing: content-box; margin: 0px; padding: 0px; -webkit-font-smoothing: antialiased; font-weight: bolder;&quot;&gt;const&lt;/b&gt; &lt;span style=&quot;box-sizing: content-box; margin: 0px; padding: 0px; -webkit-font-smoothing: antialiased; color: rgb(102, 0, 204); font-weight: bold;&quot;&gt;&lt;/span&gt;&lt;span style=&quot;box-sizing: content-box; margin: 0px; padding: 0px; -webkit-font-smoothing: antialiased; color: rgb(102, 0, 204); font-weight: bold;&quot;&gt;ChiFeature2FlowDescriptor&lt;/span&gt;*    &lt;span style=&quot;box-sizing: content-box; margin: 0px; padding: 0px; -webkit-font-smoothing: antialiased; color: rgb(0, 153, 0); font-weight: bold;&quot;&gt;&lt;/span&gt;&lt;span style=&quot;box-sizing: content-box; margin: 0px; padding: 0px; -webkit-font-smoothing: antialiased; color: rgb(0, 153, 0); font-weight: bold;&quot;&gt;pFlowDescriptors&lt;/span&gt;;   &lt;span style=&quot;box-sizing: content-box; margin: 0px; padding: 0px; -webkit-font-smoothing: antialiased; color: rgb(102, 102, 102);&quot;&gt;///&amp;lt; Pointer to flow descriptors.&lt;/span&gt;&lt;/pre&gt;&lt;/pre&gt;" style="text;whiteSpace=wrap;html=1;" vertex="1" parent="1">
          <mxGeometry x="190" y="790" width="920" height="200" as="geometry" />
        </mxCell>
      </root>
    </mxGraphModel>
  </diagram>
</mxfile>
